<svg xmlns="http://www.w3.org/2000/svg" width="499.92987060546875" height="334.66204833984375" viewBox="-294.3009948730469 -250.0176239013672 499.92987060546875 334.66204833984375"><title>Neo4j Graph Visualization</title><desc>Created using Neo4j (http://www.neo4j.com/)</desc><g class="layer relationships"><g class="relationship" transform="translate(-6.709430164899187 -107.43373128826937) rotate(381.3322310513115)"><path class="b-outline" fill="#A5ABB6" stroke="none" d="M 21.40063509461097,-12.933012701892217 L 21.90063509461097,-12.06698729810778 A 150.99484357040885 150.99484357040885 0 0 1 59.073398398396485,-27.351825200552938 L 58.819584045699415,-28.319078153179603 A 151.99484357040885 151.99484357040885 0 0 0 21.40063509461097,-12.933012701892217 Z M 130.88265476920984,-29.562246143883172 L 130.66235388858237,-28.586814177011675 A 150.99484357040885 150.99484357040885 0 0 1 168.34020244258357,-14.593232445194998 L 166.93070770981103,-11.944964218922124 L 174.75441075934904,-11.745789439771217 L 170.21952875294699,-18.12425674689216 L 168.81003402017444,-15.475988520619287 A 151.99484357040885 151.99484357040885 0 0 0 130.88265476920984,-29.562246143883172"/><text text-anchor="middle" pointer-events="none" font-size="8px" fill="#000000" x="94.78499140065819" y="-29.773923032186374" font-family="Helvetica Neue, Helvetica, Arial, sans-serif">HAS_ATTENDING</text></g><g class="relationship" transform="translate(-6.709430164899187 -107.43373128826937) rotate(494.50998890242977)"><path class="b-outline" fill="#A5ABB6" stroke="none" d="M 25 0.5 L 41.54277235381055 0.5 L 41.54277235381055 -0.5 L 25 -0.5 Z M 106.51152235381055 0.5 L 123.0542947076211 0.5 L 123.0542947076211 3.5 L 130.0542947076211 0 L 123.0542947076211 -3.5 L 123.0542947076211 -0.5 L 106.51152235381055 -0.5 Z"/><text text-anchor="middle" pointer-events="none" font-size="8px" fill="#000000" x="74.02714735381055" y="3" transform="rotate(180 74.02714735381055 0)" font-family="Helvetica Neue, Helvetica, Arial, sans-serif">CREATED_FOR</text></g><g class="relationship" transform="translate(-6.709430164899187 -107.43373128826937) rotate(193.35602084425074)"><path class="b-outline" fill="#A5ABB6" stroke="none" d="M 21.40063509461097,-12.933012701892217 L 21.90063509461097,-12.06698729810778 A 195.4613445136048 195.4613445136048 0 0 1 69.22132651930211,-31.64156693998484 L 68.96342396083176,-32.607737872239824 A 196.4613445136048 196.4613445136048 0 0 0 21.40063509461097,-12.933012701892217 Z M 164.90013048510872,-33.96726972928698 L 164.66970946643062,-32.994178698524024 A 195.4613445136048 195.4613445136048 0 0 1 212.52607529249246,-14.768365822573479 L 211.10029821868417,-12.12882803428502 L 218.92262631080024,-11.881475615068927 L 214.4271113909035,-18.287749540291422 L 213.0013343170952,-15.648211752002965 A 196.4613445136048 196.4613445136048 0 0 0 164.90013048510872,-33.96726972928698"/><text text-anchor="middle" pointer-events="none" font-size="8px" fill="#000000" x="116.8545918130098" y="-35.73416838971491" transform="rotate(180 116.8545918130098 -38.73416838971491)" font-family="Helvetica Neue, Helvetica, Arial, sans-serif">HAS_ADMISSION_WITH</text></g><g class="relationship" transform="translate(-6.709430164899187 -107.43373128826937) rotate(193.35602084425074)"><path class="b-outline" fill="#A5ABB6" stroke="none" d="M 25 0.5 L 67.28165289826872 0.5 L 67.28165289826872 -0.5 L 25 -0.5 Z M 166.6371216482687 0.5 L 208.91877454653743 0.5 L 208.91877454653743 3.5 L 215.91877454653743 0 L 208.91877454653743 -3.5 L 208.91877454653743 -0.5 L 166.6371216482687 -0.5 Z"/><text text-anchor="middle" pointer-events="none" font-size="8px" fill="#000000" x="116.95938727326872" y="3" transform="rotate(180 116.95938727326872 0)" font-family="Helvetica Neue, Helvetica, Arial, sans-serif">HAS_GROUP_CODE_OF</text></g><g class="relationship" transform="translate(-6.709430164899187 -107.43373128826937) rotate(381.3322310513115)"><path class="b-outline" fill="#A5ABB6" stroke="none" d="M 25 0.5 L 58.20071882247821 0.5 L 58.20071882247821 -0.5 L 25 -0.5 Z M 131.62259382247822 0.5 L 164.82331264495642 0.5 L 164.82331264495642 3.5 L 171.82331264495642 0 L 164.82331264495642 -3.5 L 164.82331264495642 -0.5 L 131.62259382247822 -0.5 Z"/><text text-anchor="middle" pointer-events="none" font-size="8px" fill="#000000" x="94.91165632247821" y="3" font-family="Helvetica Neue, Helvetica, Arial, sans-serif">HAS_OPERATING</text></g><g class="relationship" transform="translate(-6.709430164899187 -107.43373128826937) rotate(381.3322310513115)"><path class="b-outline" fill="#A5ABB6" stroke="none" d="M 21.40063509461097,12.933012701892217 L 21.90063509461097,12.06698729810778 A 150.99484357040885 150.99484357040885 0 0 0 67.6311232068128,29.333277203332116 L 67.433984463733,30.313652802771898 A 151.99484357040885 151.99484357040885 0 0 1 21.40063509461097,12.933012701892217 Z M 122.20458334975132,31.258506452264655 L 122.04137698111919,30.271914499511198 A 150.99484357040885 150.99484357040885 0 0 0 168.34020244258357,14.593232445194998 L 166.93070770981103,11.944964218922124 L 174.75441075934904,11.745789439771217 L 170.21952875294699,18.12425674689216 L 168.81003402017444,15.475988520619287 A 151.99484357040885 151.99484357040885 0 0 1 122.20458334975132,31.258506452264655"/><text text-anchor="middle" pointer-events="none" font-size="8px" fill="#000000" x="94.7849914006582" y="35.773923032186374" font-family="Helvetica Neue, Helvetica, Arial, sans-serif">HAS_OTHER</text></g><g class="relationship" transform="translate(-6.709430164899187 -107.43373128826937) rotate(193.35602084425074)"><path class="b-outline" fill="#A5ABB6" stroke="none" d="M 21.40063509461097,12.933012701892217 L 21.90063509461097,12.06698729810778 A 195.4613445136048 195.4613445136048 0 0 0 60.70261916848121,29.159197596672783 L 60.40113404194853,30.112668476395697 A 196.4613445136048 196.4613445136048 0 0 1 21.40063509461097,12.933012701892217 Z M 173.52968384253393,31.71582823627884 L 173.2553378808662,30.754197177443586 A 195.4613445136048 195.4613445136048 0 0 0 212.52607529249246,14.768365822573479 L 211.10029821868417,12.12882803428502 L 218.92262631080024,11.881475615068927 L 214.4271113909035,18.287749540291422 L 213.0013343170952,15.648211752002965 A 196.4613445136048 196.4613445136048 0 0 1 173.52968384253393,31.71582823627884"/><text text-anchor="middle" pointer-events="none" font-size="8px" fill="#000000" x="116.85459181300982" y="41.73416838971491" transform="rotate(180 116.85459181300982 38.73416838971491)" font-family="Helvetica Neue, Helvetica, Arial, sans-serif">HAS_DIAGNOSIS_CODE_OF</text></g><g class="relationship" transform="translate(-6.709430164899187 -107.43373128826937) rotate(434.1838314876594)"><path class="b-outline" fill="#A5ABB6" stroke="none" d="M 25 0.5 L 47.57564389277934 0.5 L 47.57564389277934 -0.5 L 25 -0.5 Z M 114.91939389277934 0.5 L 137.49503778555868 0.5 L 137.49503778555868 3.5 L 144.49503778555868 0 L 137.49503778555868 -3.5 L 137.49503778555868 -0.5 L 114.91939389277934 -0.5 Z"/><text text-anchor="middle" pointer-events="none" font-size="8px" fill="#000000" x="81.24751889277934" y="3" font-family="Helvetica Neue, Helvetica, Arial, sans-serif">SUBMITTED_BY</text></g><g class="relationship" transform="translate(-115.40770076311776 3.1398653622614) rotate(526.5601350397411)"><path class="b-outline" fill="#A5ABB6" stroke="none" d="M 25 0.5 L 37.66431145659571 0.5 L 37.66431145659571 -0.5 L 25 -0.5 Z M 109.44946770659571 0.5 L 122.11377916319142 0.5 L 122.11377916319142 3.5 L 129.11377916319142 0 L 122.11377916319142 -3.5 L 122.11377916319142 -0.5 L 109.44946770659571 -0.5 Z"/><text text-anchor="middle" pointer-events="none" font-size="8px" fill="#000000" x="73.55688958159571" y="3" transform="rotate(180 73.55688958159571 0)" font-family="Helvetica Neue, Helvetica, Arial, sans-serif">HAS_CONDITION</text></g><g class="relationship" transform="translate(-6.709430164899187 -107.43373128826937) rotate(323.8900708269879)"><path class="b-outline" fill="#A5ABB6" stroke="none" d="M 25 0.5 L 32.297573160098636 0.5 L 32.297573160098636 -0.5 L 25 -0.5 Z M 153.43429191009864 0.5 L 160.73186507019727 0.5 L 160.73186507019727 3.5 L 167.73186507019727 0 L 160.73186507019727 -3.5 L 160.73186507019727 -0.5 L 153.43429191009864 -0.5 Z"/><text text-anchor="middle" pointer-events="none" font-size="8px" fill="#000000" x="92.86593253509864" y="3" font-family="Helvetica Neue, Helvetica, Arial, sans-serif">HAS_PROCEDURE_CODE_OF</text></g></g><g class="layer nodes"><g class="node" aria-label="graph-node-15" transform="translate(-265.3009813700942,38.959711213956)"><circle class="b-outline" cx="0" cy="0" r="25" fill="#ECB5C9" stroke="#da7298" stroke-width="2px"/><text class="caption" text-anchor="middle" pointer-events="none" x="0" y="5" font-size="10px" fill="#2A2C34" font-family="Helvetica Neue, Helvetica, Arial, sans-serif"> Condition</text></g><g class="node" aria-label="graph-node-19" transform="translate(176.62887520873767,-35.83427470333892)"><circle class="b-outline" cx="0" cy="0" r="25" fill="#8DCC93" stroke="#5db665" stroke-width="2px"/><text class="caption" text-anchor="middle" pointer-events="none" x="0" y="5" font-size="10px" fill="#2A2C34" font-family="Helvetica Neue, Helvetica, Arial, sans-serif"> Physician</text></g><g class="node" aria-label="graph-node-21" transform="translate(148.99628573317221,-221.01762913521688)"><circle class="b-outline" cx="0" cy="0" r="25" fill="#4C8EDA" stroke="#2870c2" stroke-width="2px"/><text class="caption" text-anchor="middle" pointer-events="none" x="0" y="5" font-size="10px" fill="#FFFFFF" font-family="Helvetica Neue, Helvetica, Arial, sans-serif"> Procedure</text></g><g class="node" aria-label="graph-node-20" transform="translate(-241.11218951653714,-163.08624549332063)"><circle class="b-outline" cx="0" cy="0" r="25" fill="#FFC454" stroke="#d7a013" stroke-width="2px"/><text class="caption" text-anchor="middle" pointer-events="none" x="0" y="5" font-size="10px" fill="#2A2C34" font-family="Helvetica Neue, Helvetica, Arial, sans-serif"> Diagnosis</text></g><g class="node" aria-label="graph-node-18" transform="translate(-6.709430164899187,-107.43373128826937)"><circle class="b-outline" cx="0" cy="0" r="25" fill="#F16667" stroke="#eb2728" stroke-width="2px"/><text class="caption" text-anchor="middle" pointer-events="none" x="0" y="5" font-size="10px" fill="#FFFFFF" font-family="Helvetica Neue, Helvetica, Arial, sans-serif"> Claim</text></g><g class="node" aria-label="graph-node-16" transform="translate(-115.40770076311776,3.1398653622614)"><circle class="b-outline" cx="0" cy="0" r="25" fill="#D9C8AE" stroke="#c0a378" stroke-width="2px"/><text class="caption" text-anchor="middle" pointer-events="none" x="0" y="5" font-size="10px" fill="#2A2C34" font-family="Helvetica Neue, Helvetica, Arial, sans-serif"> Benefici…</text></g><g class="node" aria-label="graph-node-17" transform="translate(39.48674207181942,55.644414104065135)"><circle class="b-outline" cx="0" cy="0" r="25" fill="#DA7194" stroke="#cc3c6c" stroke-width="2px"/><text class="caption" text-anchor="middle" pointer-events="none" x="0" y="5" font-size="10px" fill="#FFFFFF" font-family="Helvetica Neue, Helvetica, Arial, sans-serif"> Provider</text></g></g></svg>